<?xml version="1.0" standalone="no"?>
<!DOCTYPE svg PUBLIC "-//W3C//DTD SVG 20010904//EN"
 "http://www.w3.org/TR/2001/REC-SVG-20010904/DTD/svg10.dtd">
<svg version="1.0" xmlns="http://www.w3.org/2000/svg"
 width="616.000000pt" height="616.000000pt" viewBox="0 0 616.000000 616.000000"
 preserveAspectRatio="xMidYMid meet">
<metadata>
Created by potrace 1.11, written by Peter Selinger 2001-2013
</metadata>
<g transform="translate(0.000000,616.000000) scale(0.100000,-0.100000)"
fill="#000000" stroke="none">
<path d="M304 5805 c-141 -45 -244 -143 -284 -272 -20 -64 -20 -88 -20 -2249
l0 -2184 803 2 c794 3 802 3 803 23 3 36 33 152 59 226 14 40 25 74 25 75 0 1
-287 3 -637 3 -351 0 -657 1 -680 1 l-41 0 -1 1699 0 1699 2734 0 2734 0 1
-64 c1 -35 1 -72 1 -81 0 -10 0 -65 0 -123 0 -58 0 -112 0 -120 0 -8 0 -62 0
-120 0 -58 0 -112 0 -120 0 -8 0 -62 0 -120 0 -58 0 -112 0 -120 0 -13 0 -194
0 -240 0 -59 0 -308 0 -320 0 -8 0 -62 0 -120 0 -58 0 -112 0 -120 0 -8 0 -62
0 -120 0 -58 0 -112 0 -120 0 -8 0 -62 0 -120 0 -58 0 -112 0 -120 0 -13 0
-194 0 -240 0 -59 0 -308 0 -320 0 -8 0 -62 0 -120 0 -58 0 -112 0 -120 0 -8
0 -62 0 -120 0 -130 0 -111 -1 -230 l-2 -100 -36 0 c-20 -1 -305 -1 -632 -1
-327 0 -597 -2 -601 -5 -4 -2 1 -30 12 -62 28 -80 60 -206 62 -244 1 -17 45
-18 764 -18 l763 0 1 63 c4 404 -1 4291 -5 4315 -26 141 -136 269 -273 318
l-68 24 -2720 -1 c-2182 -1 -2728 -4 -2761 -14z m4071 -345 c82 -51 117 -142
90 -235 -43 -149 -224 -197 -341 -89 -118 109 -58 318 100 350 10 2 20 5 23 7
8 9 97 -14 128 -33z m643 11 c85 -43 129 -123 119 -213 -24 -197 -281 -247
-386 -76 -29 49 -33 137 -7 191 21 42 87 104 120 110 55 11 119 6 154 -12z
m695 -17 c157 -111 92 -357 -100 -378 -46 -5 -130 28 -165 64 -99 104 -65 277
65 336 52 24 150 13 200 -22z"/>
<path d="M1421 4311 c-8 -5 3 -25 36 -62 26 -30 54 -58 61 -62 13 -8 42 -34
175 -150 32 -28 68 -59 80 -69 92 -78 211 -189 382 -357 213 -210 275 -287
338 -420 23 -47 41 -88 42 -91 4 -34 160 -314 197 -354 44 -48 11 -53 -74 -12
-40 19 -118 50 -173 70 -226 78 -251 87 -267 96 -10 6 -27 10 -38 10 -11 0
-28 4 -38 10 -16 9 -180 55 -232 66 -14 2 -38 9 -55 14 -44 13 -108 23 -210
34 -27 3 -61 8 -75 10 -14 3 -54 7 -90 11 -36 3 -90 9 -120 13 -47 6 -121 8
-175 3 -23 -2 -18 -26 8 -39 33 -17 125 -41 181 -47 28 -4 54 -9 58 -12 5 -2
19 -6 31 -8 20 -3 199 -41 240 -51 40 -10 65 -15 108 -24 55 -11 204 -66 389
-144 141 -60 160 -68 275 -121 95 -44 98 -45 195 -75 101 -31 121 -57 43 -57
-26 1 -82 -2 -123 -7 -147 -14 -166 -16 -210 -21 -25 -3 -70 -10 -100 -15 -30
-5 -73 -12 -95 -16 -68 -10 -186 -55 -270 -102 -83 -47 -156 -92 -165 -103 -3
-3 -20 -14 -37 -24 -18 -11 -33 -23 -33 -27 0 -4 -5 -8 -11 -8 -6 0 -23 -10
-38 -22 -15 -13 -40 -32 -55 -43 -16 -11 -33 -25 -40 -30 -6 -6 -27 -22 -46
-35 -19 -13 -40 -29 -46 -35 -7 -6 -25 -22 -41 -36 -42 -35 -76 -86 -63 -94
11 -7 108 36 146 64 37 27 171 113 279 178 64 38 280 143 305 148 13 2 37 9
54 14 17 6 63 13 101 16 109 10 479 15 469 6 -5 -4 -29 -16 -54 -26 -100 -42
-220 -136 -300 -233 -96 -118 -269 -508 -366 -827 -13 -44 -28 -91 -33 -106
-12 -38 -5 -122 19 -229 12 -52 23 -102 25 -110 2 -8 4 -15 5 -15 1 0 3 -7 5
-15 1 -8 17 -69 35 -135 71 -267 142 -348 106 -120 -5 33 -24 128 -62 310 -2
11 -6 38 -9 60 -3 22 -7 51 -10 65 -15 66 3 194 34 245 3 6 6 12 7 15 1 7 13
36 37 90 28 65 48 111 59 140 6 14 14 32 19 40 5 8 12 22 15 30 29 73 126 252
193 355 65 99 181 210 181 172 0 -8 -3 -17 -7 -21 -8 -8 -8 -7 -32 -117 -17
-79 -21 -194 -7 -254 17 -80 45 -151 91 -236 21 -38 124 -141 173 -172 87 -56
169 -78 298 -80 136 -1 211 21 319 95 116 78 196 203 243 378 2 8 5 58 8 110
3 92 -13 188 -45 273 -14 37 -14 39 7 28 73 -39 202 -210 276 -368 6 -13 14
-23 19 -23 4 0 7 -4 7 -10 0 -5 17 -44 38 -87 21 -43 39 -81 40 -85 1 -5 14
-34 28 -65 14 -32 32 -76 40 -97 8 -22 18 -44 23 -50 4 -6 18 -40 30 -76 13
-36 27 -75 33 -86 9 -20 5 -124 -7 -184 -3 -14 -7 -41 -10 -60 -4 -32 -17 -99
-30 -160 -3 -14 -8 -38 -10 -55 -3 -16 -8 -37 -10 -45 -8 -29 -15 -76 -21
-142 -6 -56 -4 -68 8 -68 14 0 63 93 73 138 2 9 11 42 20 72 19 67 76 279 80
300 2 8 8 35 15 59 14 52 19 156 9 191 -4 14 -18 59 -30 100 -13 41 -24 77
-25 80 0 3 -4 12 -7 20 -4 8 -32 85 -63 170 -63 176 -182 428 -242 517 -74
108 -205 216 -333 275 -27 12 -49 24 -49 28 0 9 324 3 450 -9 144 -14 175 -24
362 -117 92 -46 130 -66 138 -74 5 -5 37 -24 75 -44 11 -6 59 -37 106 -68 117
-77 181 -114 197 -112 6 1 17 2 22 3 14 1 -5 37 -34 65 -28 28 -163 136 -206
166 -19 13 -37 27 -40 31 -10 13 -167 117 -265 176 -118 71 -225 110 -321 118
-38 3 -81 7 -96 10 -48 9 -71 12 -128 19 -112 14 -137 17 -235 22 -55 4 -101
7 -103 9 -9 8 14 34 35 40 41 10 209 78 303 123 153 72 319 144 358 153 4 1
36 14 72 29 36 15 68 28 72 29 4 1 13 4 20 6 15 5 192 45 228 51 14 2 35 6 47
9 13 3 24 5 25 4 2 0 15 4 29 9 14 6 41 13 60 16 19 3 45 8 59 11 14 2 39 7
55 10 154 29 236 58 216 78 -24 24 -101 24 -301 -3 -41 -5 -97 -12 -125 -15
-70 -7 -136 -15 -245 -30 -58 -8 -279 -72 -450 -131 -74 -25 -142 -47 -150
-49 -38 -8 -172 -61 -232 -91 -37 -19 -70 -34 -73 -34 -14 0 1 32 55 116 60
92 109 186 199 379 27 56 58 112 70 124 11 11 19 21 15 21 -18 0 341 362 494
499 57 50 118 105 135 120 31 28 128 109 238 200 59 49 129 126 129 143 0 15
-47 1 -105 -32 -42 -24 -176 -122 -270 -196 -11 -9 -37 -27 -57 -41 -21 -14
-38 -30 -38 -34 0 -5 -4 -9 -10 -9 -5 0 -20 -9 -32 -19 -13 -10 -70 -57 -128
-102 -58 -46 -111 -89 -118 -96 -7 -7 -34 -29 -60 -50 -58 -47 -47 -37 -182
-163 -62 -58 -131 -132 -155 -165 -44 -62 -206 -347 -239 -422 -11 -24 -22
-43 -25 -43 -17 0 -39 58 -35 90 9 66 3 124 -15 158 -6 12 -9 22 -5 22 3 0 1
7 -6 15 -16 20 -21 15 -63 -65 -21 -41 -39 -64 -48 -61 -24 6 -165 4 -176 -2
-15 -9 -39 21 -67 85 -29 65 -50 70 -73 18 -19 -47 -27 -94 -25 -164 1 -43 -4
-63 -17 -78 -18 -19 -19 -18 -49 47 -17 36 -56 108 -87 160 -30 52 -55 99 -55
104 0 6 -3 11 -7 11 -5 0 -17 19 -27 43 -20 43 -224 255 -340 352 -32 28 -64
55 -70 60 -29 26 -238 195 -291 235 -33 25 -65 50 -71 55 -6 6 -48 37 -94 70
-46 33 -92 68 -102 78 -10 9 -22 17 -28 17 -5 0 -10 5 -10 10 0 6 -7 10 -15
10 -8 0 -15 4 -15 8 0 9 -98 70 -140 88 -15 7 -33 9 -39 5z"/>
</g>
</svg>
