<svg width="192" height="36" viewBox="0 0 192 36" fill="none" xmlns="http://www.w3.org/2000/svg">
<path d="M50.1096 21C50.1096 24.6 52.6596 27.15 56.8596 27.15C61.0296 27.15 63.7596 24.45 63.7596 21.75C63.7596 14.88 54.0096 16.62 54.0096 13.35C54.0096 12.3 55.0596 11.25 56.8596 11.25C58.6596 11.25 59.7096 12.27 59.7096 13.95H63.1596C63.1596 10.5 60.6096 7.95 56.8596 7.95C52.8096 7.95 50.2596 10.5 50.2596 13.38C50.2596 19.95 60.0096 18.15 60.0096 21.6C60.0096 22.8 58.9896 23.85 56.8596 23.85C54.9096 23.85 53.7096 22.68 53.7096 21H50.1096ZM66.2955 27H69.7455V13.2H66.2955V27ZM68.0955 11.55C69.1455 11.55 70.0455 10.65 70.0455 9.6C70.0455 8.55 69.1455 7.65 68.0955 7.65C67.0455 7.65 66.1455 8.55 66.1455 9.6C66.1455 10.65 67.0455 11.55 68.0955 11.55ZM74.0838 22.2C74.0838 25.2 76.0038 27.15 78.7338 27.15C79.1838 27.15 79.5738 27.09 79.9038 27C80.0838 26.97 80.2338 26.91 80.3838 26.85V23.85L80.1438 23.94C79.9938 23.97 79.8138 24 79.4838 24C78.2838 24 77.5338 23.25 77.5338 22.05V16.35H80.5338V13.2H77.5338V9.9H74.5338V11.85C74.5338 12.96 73.9938 13.5 72.8838 13.5H71.9838V16.35H74.0838V22.2ZM91.7826 22.8C91.6326 23.01 91.4226 23.19 91.1826 23.34C90.7326 23.61 90.1626 23.85 89.2326 23.85C87.4326 23.85 86.4126 22.8 86.0826 21.45H95.6826L95.7426 21C95.7726 20.73 95.8326 20.43 95.8326 20.1C95.8326 15.9 92.8326 13.05 89.2326 13.05C85.5126 13.05 82.3326 16.2 82.3326 20.1C82.3326 24 85.5126 27.15 89.2326 27.15C92.3526 27.15 94.6626 24.87 95.3826 22.8H91.7826ZM85.9326 19.05C86.2626 17.52 87.4326 16.35 89.2326 16.35C91.0326 16.35 92.2026 17.52 92.5326 19.05H85.9326ZM111.576 20.4C110.946 22.05 109.356 23.7 106.776 23.7C103.776 23.7 101.226 21.15 101.226 17.55C101.226 13.95 103.776 11.4 106.776 11.4C109.326 11.4 110.946 13.05 111.426 14.7H115.176C114.306 11.1 111.096 7.95 106.776 7.95C101.826 7.95 97.6256 12.15 97.6256 17.55C97.6256 22.95 101.826 27.15 106.776 27.15C111.246 27.15 114.456 24 115.326 20.4H111.576ZM117.712 27H121.162V19.65C121.162 17.85 122.332 16.65 124.012 16.65C124.372 16.65 124.672 16.71 124.882 16.74L125.212 16.8V13.2L124.912 13.14C124.702 13.11 124.492 13.05 124.162 13.05C123.112 13.05 122.302 13.44 121.732 13.89C121.402 14.13 121.102 14.4 120.862 14.7L120.262 13.2H117.712V27ZM136.017 27H138.567V18.45C138.567 15.33 136.287 13.05 133.167 13.05C129.717 13.05 127.647 15.18 127.317 17.7H130.767C130.827 17.43 130.947 17.16 131.127 16.95C131.457 16.59 131.937 16.2 132.867 16.2C134.217 16.2 135.117 17.07 135.117 18.6C128.817 18.6 126.867 20.52 126.867 23.25C126.867 25.53 128.517 27.15 131.517 27.15C132.717 27.15 133.677 26.79 134.367 26.4C134.757 26.19 135.087 25.92 135.417 25.65L136.017 27ZM135.117 21.6C135.117 23.28 133.917 24.45 132.117 24.45C131.067 24.45 130.317 23.7 130.317 22.95C130.317 21.75 131.067 21 135.117 21V21.6ZM144.413 27H147.413L149.963 18.75L152.513 27H155.513L160.013 13.2H156.563L153.863 22.05L151.013 13.2H148.913L146.063 22.05L143.363 13.2H139.913L144.413 27ZM161.803 27H165.253V8.1H161.803V27ZM177.242 22.8C177.092 23.01 176.882 23.19 176.642 23.34C176.192 23.61 175.622 23.85 174.692 23.85C172.892 23.85 171.872 22.8 171.542 21.45H181.142L181.202 21C181.232 20.73 181.292 20.43 181.292 20.1C181.292 15.9 178.292 13.05 174.692 13.05C170.972 13.05 167.792 16.2 167.792 20.1C167.792 24 170.972 27.15 174.692 27.15C177.812 27.15 180.122 24.87 180.842 22.8H177.242ZM171.392 19.05C171.722 17.52 172.892 16.35 174.692 16.35C176.492 16.35 177.662 17.52 177.992 19.05H171.392ZM183.835 27H187.285V19.65C187.285 17.85 188.455 16.65 190.135 16.65C190.495 16.65 190.795 16.71 191.005 16.74L191.335 16.8V13.2L191.035 13.14C190.825 13.11 190.615 13.05 190.285 13.05C189.235 13.05 188.425 13.44 187.855 13.89C187.525 14.13 187.225 14.4 186.985 14.7L186.385 13.2H183.835V27Z" fill="white"/>
<g clip-path="url(#clip0)">
<path d="M20.9812 21.2758C20.9812 21.2758 21.388 21.0785 22.0029 20.8061C22.6177 20.5337 23.4502 20.1438 24.2637 19.8667C24.4765 19.7915 24.6751 19.7023 24.8833 19.6412L25.5407 19.4956L26.6711 19.2467C27.0353 19.1668 27.4089 19.0917 27.7779 19.0259C28.3927 18.9414 28.8799 18.777 28.861 18.6455C28.842 18.514 28.3312 18.4858 27.7116 18.5703C27.7116 18.5703 27.2387 18.6079 26.5765 18.6971L25.4083 18.8428L24.7414 18.9273C24.5191 18.9649 24.2684 19.0447 24.0697 19.1058C23.1238 19.3547 22.3008 19.6647 21.6434 19.8808C20.986 20.0968 20.565 20.2659 20.565 20.2659C20.3026 20.3732 20.0481 20.4987 19.8035 20.6417C19.7956 20.5778 19.7814 20.5149 19.761 20.4538C20.0827 20.0403 20.363 19.5967 20.5981 19.1293L21.2035 17.8564C21.2895 17.6528 21.389 17.4551 21.5015 17.2646C21.6248 17.0742 21.7607 16.8922 21.9083 16.7197C22.0833 16.5318 22.2535 16.3299 22.438 16.1326L23.0292 15.5361C24.6468 13.9579 26.3968 12.5112 26.3968 12.5112C27.0069 12.0415 27.4515 11.5718 27.3758 11.4732C27.3002 11.3746 26.7184 11.6611 26.0988 12.1496C26.0988 12.1496 24.2447 13.4882 22.4947 14.9678L21.8468 15.5361C21.6339 15.7334 21.4353 15.9353 21.2366 16.1279C21.0346 16.3285 20.8495 16.5453 20.6833 16.7761C20.5501 16.9725 20.4285 17.1763 20.3191 17.3867L19.6238 18.622C19.5056 18.8521 19.392 19.0917 19.2927 19.3218C19.2215 19.2036 19.1441 19.0892 19.061 18.979C19.0932 18.8611 19.1091 18.7394 19.1083 18.6173C19.1324 18.3718 19.0983 18.1241 19.0089 17.894C18.9762 17.7914 18.9334 17.6923 18.8812 17.5981H18.7866C18.7866 17.5981 18.7441 17.7155 18.6779 17.8799C18.6019 18.0557 18.5068 18.2226 18.3941 18.3778C18.3819 18.4007 18.364 18.4201 18.342 18.4341C18.2474 18.3965 17.9589 18.2885 17.7745 18.4341C17.59 18.2744 17.3015 18.3824 17.2022 18.4341C17.1814 18.4188 17.1637 18.3997 17.1502 18.3778C17.0409 18.2204 16.946 18.0538 16.8664 17.8799C16.8002 17.7155 16.7576 17.5981 16.7576 17.5981H16.6677C16.6123 17.6913 16.5678 17.7906 16.5353 17.894C16.4467 18.1244 16.4112 18.3715 16.4312 18.6173C16.4327 18.7393 16.4486 18.8607 16.4785 18.979C16.3943 19.0884 16.3169 19.2029 16.2468 19.3218C16.1543 19.0814 16.0453 18.8475 15.9204 18.622L15.2204 17.3867C15.1128 17.1754 14.9911 16.9714 14.8562 16.7761C14.6724 16.5514 14.4699 16.3424 14.2508 16.1514C14.0522 15.9588 13.8535 15.7521 13.6454 15.5596L12.9974 14.9912C11.2474 13.4882 9.38867 12.1731 9.38867 12.1731C8.77853 11.7034 8.19204 11.3981 8.1211 11.4967C8.05015 11.5953 8.49002 12.0509 9.09542 12.5347C9.09542 12.5347 10.8454 13.9908 12.4535 15.569L13.0447 16.1514C13.2387 16.344 13.4042 16.5506 13.5792 16.7385C13.7268 16.9099 13.8612 17.092 13.9812 17.2834C14.0934 17.4748 14.1944 17.6724 14.2839 17.8752L14.8846 19.1481C15.1222 19.6191 15.4058 20.0659 15.7312 20.482C15.7312 20.5431 15.6981 20.6088 15.6839 20.6652C15.4372 20.5231 15.1813 20.3976 14.9177 20.2894C14.9177 20.2894 14.492 20.1297 13.8441 19.909C13.1961 19.6882 12.3447 19.3688 11.4177 19.134C11.1907 19.0729 10.9684 18.9931 10.7414 18.9555L10.0839 18.8662L8.91569 18.73C8.22988 18.6361 7.77583 18.6032 7.77583 18.6032C7.16096 18.5187 6.64542 18.5515 6.6265 18.6737C6.60759 18.7958 7.09948 18.9743 7.70961 19.0588C7.70961 19.0588 8.18259 19.134 8.8211 19.2796L9.9515 19.5285L10.59 19.6647C10.7981 19.7258 11.0015 19.815 11.2049 19.8902C12.0184 20.1767 12.8556 20.5759 13.4704 20.8296C13.8157 20.9799 14.161 21.1349 14.492 21.2993C14.8721 21.459 15.2686 21.5772 15.6745 21.6515C15.6939 21.7203 15.7176 21.7877 15.7454 21.8535C15.5186 21.8394 15.2911 21.8394 15.0643 21.8535L13.9339 21.9709C13.5386 22.0059 13.1454 22.0624 12.7562 22.14L12.0941 22.2575C11.8623 22.3279 11.6211 22.4265 11.3893 22.5064C10.6419 22.8961 9.92835 23.3471 9.25623 23.8544C8.72177 24.249 8.36705 24.5214 8.36705 24.5214C7.87042 24.8784 7.53934 25.2729 7.61975 25.3668C7.70015 25.4608 8.15421 25.2447 8.64137 24.8971C8.64137 24.8971 9.01502 24.6482 9.58732 24.3053C10.2603 23.879 10.9674 23.5082 11.7015 23.1968C11.8954 23.1452 12.0799 23.0841 12.2738 23.0418L12.8981 22.9855C13.2688 22.9447 13.6414 22.9228 14.0143 22.9197H15.1211C15.2517 22.9314 15.3831 22.9314 15.5137 22.9197C15.065 23.0904 14.638 23.3126 14.2414 23.582L14.1468 23.6525L13.8914 23.8591C13.7581 23.9737 13.6317 24.096 13.513 24.2255C13.3853 24.3852 13.2197 24.5918 13.0826 24.7985C12.5288 25.7807 12.065 26.8104 11.6968 27.875C11.4839 28.4434 11.2947 29.007 11.1245 29.5612L11.0677 29.7773C11.0394 29.8571 11.0297 29.9422 11.0393 30.0262V30.2423C11.0434 30.3121 11.0545 30.3813 11.0725 30.449C11.115 30.712 11.167 30.9468 11.2238 31.1723C11.4319 32.0553 11.6022 32.6284 11.5975 32.6284C11.7961 33.4222 12.0704 34.0375 12.1934 34.0046C12.3164 33.9717 12.2502 33.3094 12.0562 32.5203C12.0562 32.5203 11.9238 31.9379 11.7772 31.0643C11.7337 30.8359 11.7022 30.6054 11.6826 30.3738C11.6826 30.3128 11.6826 30.2423 11.6826 30.1953C11.6873 30.1485 11.6873 30.1013 11.6826 30.0544C11.6826 30.0544 11.7062 30.0121 11.6589 29.9793C11.711 29.9793 11.692 29.9229 11.711 29.8994L11.7724 29.7162C11.9758 29.1808 12.1981 28.6453 12.4346 28.1193C12.8502 27.138 13.3519 26.195 13.9339 25.3011C14.0569 25.1367 14.1704 25.024 14.265 24.9065C14.3596 24.7891 14.4731 24.7234 14.5866 24.6388C14.6584 24.5803 14.7343 24.5269 14.8137 24.4791L14.8562 24.4509C14.7343 24.7116 14.6393 24.9839 14.5724 25.2635C14.0616 27.3912 15.5893 29.6693 17.7461 29.5237C19.8934 29.6787 21.4353 27.4006 20.9197 25.2635C20.8529 24.9839 20.7579 24.7116 20.636 24.4509L20.6785 24.4791C20.7579 24.5269 20.8338 24.5803 20.9056 24.6388C21.0191 24.7234 21.1231 24.8126 21.2272 24.9065C21.3312 25.0005 21.44 25.1367 21.5583 25.3011C22.1459 26.1933 22.6509 27.1365 23.067 28.1193C23.3035 28.6453 23.54 29.1761 23.7292 29.7162L23.7907 29.8947C23.7907 29.9229 23.7907 29.9605 23.8427 29.9793C23.7954 30.0121 23.8427 30.0309 23.8427 30.0544C23.838 30.0997 23.838 30.1454 23.8427 30.1906C23.8518 30.2498 23.8518 30.31 23.8427 30.3691C23.8191 30.604 23.786 30.8388 23.7434 31.0643C23.5968 31.9332 23.4691 32.5203 23.4691 32.5203C23.2752 33.3094 23.2137 33.9717 23.3319 34.0046C23.4502 34.0375 23.7292 33.4222 23.9231 32.6284C23.9231 32.6284 24.0934 32.0553 24.3015 31.1723C24.3583 30.9515 24.4103 30.7026 24.4529 30.4443C24.4529 30.3785 24.4812 30.3175 24.486 30.2376C24.4907 30.1547 24.4907 30.0716 24.486 29.9887C24.4956 29.9046 24.4859 29.8195 24.4576 29.7397L24.4008 29.519C24.2306 28.9506 24.0414 28.387 23.8285 27.8328C23.4593 26.7685 22.9956 25.7389 22.4427 24.7562C22.3056 24.5496 22.1447 24.3523 22.0123 24.1832C21.8932 24.0556 21.7669 23.9348 21.6339 23.8215C21.5488 23.7464 21.4637 23.6759 21.3785 23.6102L21.2839 23.5397C20.8901 23.2713 20.4664 23.0491 20.0211 22.8775C20.1488 22.8775 20.2765 22.8775 20.4137 22.8775H21.5204C21.8918 22.8766 22.2629 22.897 22.6319 22.9385L23.2562 22.9949C23.4501 23.0371 23.6299 23.0982 23.8238 23.1499C24.5611 23.4553 25.2715 23.8214 25.9474 24.2443C26.2643 24.4368 26.5765 24.6341 26.8934 24.8361C27.3664 25.1931 27.8393 25.4138 27.9103 25.3058C27.9812 25.1978 27.6549 24.8361 27.163 24.465C27.163 24.465 26.813 24.1832 26.2691 23.7793C25.5983 23.2761 24.8881 22.8269 24.1454 22.4359C23.9137 22.3467 23.6724 22.2481 23.4407 22.1823L22.7029 22.1118C22.3153 22.0329 21.9237 21.9749 21.5299 21.9381L20.3947 21.8206C20.1679 21.8089 19.9405 21.8089 19.7137 21.8206C19.7422 21.7551 19.7659 21.6876 19.7846 21.6187C20.1918 21.5436 20.5898 21.4255 20.9718 21.2664L20.9812 21.2758Z" fill="white"/>
<path d="M32.6351 3H2.36486C1.73766 3 1.13615 3.24743 0.692653 3.68786C0.249155 4.12828 0 4.72563 0 5.34849L0 29.7727H9.15676C9.1651 29.5821 9.19525 29.393 9.24662 29.2091L9.29865 29.0259V28.9695C9.40743 28.6126 9.52568 28.2556 9.65338 27.8939H1.89189V8.63636H33.1081V27.8939H25.8007C25.9236 28.2556 26.0419 28.6173 26.1507 28.9836V29.0306L26.2027 29.2185C26.2589 29.3986 26.2938 29.5846 26.3068 29.7727H35V5.34849C35 4.72563 34.7508 4.12828 34.3073 3.68786C33.8638 3.24743 33.2623 3 32.6351 3ZM24.3581 7.22727C24.1242 7.22727 23.8956 7.15841 23.7012 7.02938C23.5067 6.90035 23.3552 6.71696 23.2657 6.50239C23.1762 6.28783 23.1528 6.05173 23.1984 5.82395C23.244 5.59617 23.3566 5.38694 23.522 5.22272C23.6874 5.0585 23.8981 4.94666 24.1274 4.90135C24.3568 4.85604 24.5945 4.8793 24.8106 4.96817C25.0267 5.05705 25.2113 5.20755 25.3413 5.40066C25.4712 5.59376 25.5405 5.82079 25.5405 6.05303C25.5405 6.36446 25.416 6.66313 25.1942 6.88335C24.9725 7.10356 24.6717 7.22727 24.3581 7.22727ZM28.1419 7.22727C27.908 7.22727 27.6794 7.15841 27.485 7.02938C27.2905 6.90035 27.139 6.71696 27.0495 6.50239C26.96 6.28783 26.9366 6.05173 26.9822 5.82395C27.0278 5.59617 27.1404 5.38694 27.3058 5.22272C27.4711 5.0585 27.6818 4.94666 27.9112 4.90135C28.1406 4.85604 28.3783 4.8793 28.5944 4.96817C28.8104 5.05705 28.9951 5.20755 29.125 5.40066C29.255 5.59376 29.3243 5.82079 29.3243 6.05303C29.3243 6.36446 29.1997 6.66313 28.978 6.88335C28.7563 7.10356 28.4555 7.22727 28.1419 7.22727ZM31.9257 7.22727C31.6918 7.22727 31.4632 7.15841 31.2688 7.02938C31.0743 6.90035 30.9227 6.71696 30.8333 6.50239C30.7438 6.28783 30.7203 6.05173 30.766 5.82395C30.8116 5.59617 30.9242 5.38694 31.0896 5.22272C31.2549 5.0585 31.4656 4.94666 31.695 4.90135C31.9244 4.85604 32.1621 4.8793 32.3782 4.96817C32.5942 5.05705 32.7789 5.20755 32.9088 5.40066C33.0388 5.59376 33.1081 5.82079 33.1081 6.05303C33.1081 6.36446 32.9835 6.66313 32.7618 6.88335C32.54 7.10356 32.2393 7.22727 31.9257 7.22727Z" fill="white"/>
</g>
<defs>
<clipPath id="clip0">
<rect width="35" height="31" fill="white" transform="translate(0 3)"/>
</clipPath>
</defs>
</svg>
