<?xml version="1.0" encoding="utf-8"?>
<!-- Generator: Adobe Illustrator 24.2.1, SVG Export Plug-In . SVG Version: 6.00 Build 0)  -->
<svg version="1.1" id="Layer_1" xmlns="http://www.w3.org/2000/svg" xmlns:xlink="http://www.w3.org/1999/xlink" x="0px" y="0px"
	 viewBox="0 0 805 137" style="enable-background:new 0 0 805 137;" xml:space="preserve">
<style type="text/css">
	.st0{clip-path:url(#SVGID_2_);}
	.st1{fill:#273040;}
</style>
<g>
	<defs>
		<rect id="SVGID_1_" width="153.3" height="136.8"/>
	</defs>
	<clipPath id="SVGID_2_">
		<use xlink:href="#SVGID_1_"  style="overflow:visible;"/>
	</clipPath>
	<g class="st0">
		<path class="st1" d="M91.9,80.6c0,0,1.8-0.9,4.5-2.1c2.7-1.2,6.3-2.9,9.9-4.1c0.9-0.3,1.8-0.7,2.7-1l2.9-0.6l5-1.1
			c1.6-0.4,3.2-0.7,4.8-1c2.7-0.4,4.8-1.1,4.7-1.7c-0.1-0.6-2.3-0.7-5-0.3c0,0-2.1,0.2-5,0.6l-5.1,0.6l-2.9,0.4
			c-1,0.2-2.1,0.5-2.9,0.8c-4.1,1.1-7.7,2.5-10.6,3.4c-2.9,1-4.7,1.7-4.7,1.7c-1.1,0.5-2.3,1-3.3,1.7c0-0.3-0.1-0.6-0.2-0.8
			c1.4-1.8,2.6-3.8,3.7-5.8l2.7-5.6c0.4-0.9,0.8-1.8,1.3-2.6c0.5-0.8,1.1-1.6,1.8-2.4c0.8-0.8,1.5-1.7,2.3-2.6l2.6-2.6
			c7.1-7,14.8-13.3,14.8-13.3c2.7-2.1,4.6-4.1,4.3-4.6c-0.3-0.4-2.9,0.8-5.6,3c0,0-8.1,5.9-15.8,12.4l-2.8,2.5
			c-0.9,0.9-1.8,1.8-2.7,2.6c-0.9,0.9-1.7,1.8-2.4,2.9c-0.6,0.9-1.1,1.8-1.6,2.7l-3,5.4c-0.5,1-1,2.1-1.5,3.1c-0.3-0.5-0.7-1-1-1.5
			c0.1-0.5,0.2-1.1,0.2-1.6c0.1-1.1,0-2.2-0.4-3.2c-0.1-0.5-0.3-0.9-0.6-1.3h-0.4c0,0-0.2,0.5-0.5,1.2c-0.3,0.8-0.7,1.5-1.2,2.2
			c-0.1,0.1-0.1,0.2-0.2,0.2c-0.4-0.2-1.7-0.6-2.5,0v0.1v-0.1c-0.8-0.7-2.1-0.2-2.5,0c-0.1-0.1-0.2-0.2-0.2-0.2
			c-0.5-0.7-0.9-1.4-1.2-2.2c-0.3-0.7-0.5-1.2-0.5-1.2H73c-0.2,0.4-0.4,0.8-0.6,1.3c-0.4,1-0.5,2.1-0.5,3.2c0,0.5,0.1,1.1,0.2,1.6
			c-0.4,0.5-0.7,1-1,1.5c-0.4-1.1-0.9-2.1-1.4-3.1l-3.1-5.4c-0.5-0.9-1-1.8-1.6-2.7c-0.8-1-1.7-1.9-2.7-2.8
			c-0.9-0.8-1.7-1.8-2.7-2.6l-2.8-2.5c-7.7-6.6-15.8-12.4-15.8-12.4c-2.7-2.1-5.2-3.4-5.6-3c-0.3,0.4,1.6,2.4,4.3,4.6
			c0,0,7.7,6.4,14.7,13.4l2.6,2.6c0.8,0.8,1.6,1.8,2.3,2.6c0.6,0.8,1.2,1.6,1.8,2.4c0.5,0.8,0.9,1.7,1.3,2.6l2.6,5.6
			c1,2.1,2.3,4,3.7,5.9c0,0.3-0.1,0.6-0.2,0.8c-1.1-0.6-2.2-1.2-3.4-1.7c0,0-1.9-0.7-4.7-1.7c-2.8-1-6.6-2.4-10.6-3.4
			c-1-0.3-2-0.6-3-0.8L44.2,70l-5.1-0.6c-3-0.4-5-0.6-5-0.6c-2.7-0.4-5-0.2-5,0.3c-0.1,0.5,2.1,1.3,4.7,1.7c0,0,2.1,0.3,4.9,1l5,1.1
			l2.8,0.6c0.9,0.3,1.8,0.7,2.7,1c3.6,1.3,7.2,3,9.9,4.1c1.5,0.7,3,1.3,4.5,2.1c1.7,0.7,3.4,1.2,5.2,1.6c0.1,0.3,0.2,0.6,0.3,0.9
			c-1-0.1-2-0.1-3,0l-5,0.5c-1.7,0.2-3.5,0.4-5.2,0.7L53,85c-1,0.3-2.1,0.7-3.1,1.1c-3.3,1.7-6.4,3.7-9.3,5.9
			c-2.3,1.7-3.9,2.9-3.9,2.9c-2.2,1.6-3.6,3.3-3.3,3.7c0.4,0.4,2.3-0.5,4.5-2.1c0,0,1.6-1.1,4.1-2.6c2.9-1.9,6-3.5,9.3-4.9
			c0.8-0.2,1.7-0.5,2.5-0.7l2.7-0.2c1.6-0.2,3.3-0.3,4.9-0.3h4.8c0.6,0.1,1.1,0.1,1.7,0c-2,0.8-3.8,1.7-5.6,2.9L62,91.1L60.9,92
			c-0.6,0.5-1.1,1-1.7,1.6c-0.6,0.7-1.3,1.6-1.9,2.5c-2.4,4.3-4.5,8.9-6.1,13.6c-0.9,2.5-1.8,5-2.5,7.4l-0.2,1
			c-0.1,0.4-0.2,0.7-0.1,1.1v1c0,0.3,0.1,0.6,0.1,0.9c0.2,1.2,0.4,2.2,0.7,3.2c0.9,3.9,1.7,6.4,1.6,6.4c0.9,3.5,2.1,6.2,2.6,6.1
			c0.5-0.1,0.2-3.1-0.6-6.5c0,0-0.6-2.6-1.2-6.4c-0.2-1-0.3-2-0.4-3c0-0.3,0-0.6,0-0.8c0-0.2,0-0.4,0-0.6c0,0,0.1-0.2-0.1-0.3
			c0.2,0,0.1-0.2,0.2-0.4l0.3-0.8c0.9-2.4,1.9-4.7,2.9-7c1.8-4.3,4-8.5,6.6-12.4c0.5-0.7,1-1.2,1.5-1.7c0.4-0.5,0.9-0.8,1.4-1.2
			c0.3-0.3,0.6-0.5,1-0.7l0.2-0.1c-0.5,1.2-1,2.4-1.2,3.6c-2.2,9.4,4.5,19.4,13.9,18.8c9.4,0.7,16.2-9.4,13.9-18.8
			c-0.3-1.2-0.7-2.4-1.2-3.6l0.2,0.1c0.3,0.2,0.7,0.4,1,0.7c0.5,0.4,1,0.8,1.4,1.2c0.5,0.4,0.9,1,1.5,1.7c2.6,3.9,4.8,8.1,6.6,12.4
			c1,2.3,2.1,4.7,2.9,7l0.3,0.8c0,0.1,0,0.3,0.2,0.4c-0.2,0.1,0,0.2,0,0.3c0,0.2,0,0.4,0,0.6c0,0.3,0,0.5,0,0.8
			c-0.1,1-0.2,2.1-0.4,3.1c-0.6,3.8-1.2,6.4-1.2,6.4c-0.8,3.5-1.1,6.4-0.6,6.5c0.5,0.1,1.7-2.6,2.6-6.1c0,0,0.7-2.5,1.7-6.4
			c0.2-1,0.5-2.1,0.7-3.2c0-0.3,0.1-0.6,0.1-0.9c0-0.4,0-0.7,0-1.1c0-0.4,0-0.7-0.1-1.1l-0.2-1c-0.7-2.5-1.6-5-2.5-7.4
			c-1.6-4.7-3.6-9.2-6.1-13.6c-0.6-0.9-1.3-1.8-1.9-2.5c-0.5-0.6-1.1-1.1-1.7-1.6c-0.4-0.3-0.7-0.6-1.1-0.9l-0.4-0.3
			c-1.7-1.2-3.6-2.2-5.5-2.9c0.6,0,1.1,0,1.7,0h4.8c1.6,0,3.3,0.1,4.9,0.3l2.7,0.2c0.8,0.2,1.6,0.5,2.5,0.7c3.2,1.3,6.3,3,9.3,4.8
			c1.4,0.8,2.8,1.7,4.1,2.6c2.1,1.6,4.1,2.5,4.5,2.1c0.3-0.5-1.1-2.1-3.3-3.7c0,0-1.5-1.2-3.9-3c-2.9-2.2-6.1-4.2-9.3-5.9
			c-1-0.4-2.1-0.8-3.1-1.1l-3.2-0.3c-1.7-0.3-3.4-0.6-5.1-0.8l-5-0.5c-1-0.1-2-0.1-3,0c0.1-0.3,0.2-0.6,0.3-0.9
			C88.5,81.8,90.2,81.3,91.9,80.6L91.9,80.6z"/>
		<path class="st1" d="M143,0H10.4C7.6,0,5,1.1,3,3s-3,4.6-3,7.3v107.7h40.1c0-0.8,0.2-1.7,0.4-2.5l0.2-0.8v-0.2
			c0.5-1.6,1-3.2,1.6-4.7h-34v-85H145v85h-32c0.5,1.6,1.1,3.2,1.5,4.8v0.2l0.2,0.8c0.2,0.8,0.4,1.6,0.5,2.4h38.1V10.4
			c0-2.7-1.1-5.4-3-7.3C148.4,1.1,145.7,0,143,0L143,0z M106.7,18.6c-1,0-2-0.3-2.9-0.9c-0.9-0.6-1.5-1.4-1.9-2.3
			c-0.4-0.9-0.5-2-0.3-3c0.2-1,0.7-1.9,1.4-2.7c0.7-0.7,1.6-1.2,2.7-1.4c1-0.2,2-0.1,3,0.3c0.9,0.4,1.8,1.1,2.3,1.9
			c0.6,0.9,0.9,1.9,0.9,2.9c0,1.4-0.5,2.7-1.5,3.7C109.4,18.1,108.1,18.6,106.7,18.6z M123.3,18.6c-1,0-2-0.3-2.9-0.9
			c-0.9-0.6-1.5-1.4-1.9-2.3c-0.4-0.9-0.5-2-0.3-3c0.2-1,0.7-1.9,1.4-2.7c0.7-0.7,1.6-1.2,2.7-1.4c1-0.2,2-0.1,3,0.3
			c0.9,0.4,1.8,1.1,2.3,1.9c0.6,0.9,0.9,1.9,0.9,2.9c0,1.4-0.5,2.7-1.5,3.7C126,18.1,124.7,18.6,123.3,18.6z M139.9,18.6
			c-1,0-2-0.3-2.9-0.9c-0.9-0.6-1.5-1.4-1.9-2.3c-0.4-0.9-0.5-2-0.3-3c0.2-1,0.7-1.9,1.4-2.7c0.7-0.7,1.6-1.2,2.7-1.4
			c1-0.2,2-0.1,3,0.3c0.9,0.4,1.8,1.1,2.3,1.9c0.6,0.9,0.9,1.9,0.9,2.9c0,1.4-0.5,2.7-1.5,3.7C142.6,18.1,141.2,18.6,139.9,18.6z"/>
	</g>
</g>
<path class="st1" d="M202.5,87.4c9.1,4.7,17.4,5.2,21.2,4.8c12.6-0.6,20.3-9.2,20.3-20.3c0-10.7-9.1-16.8-19.5-20.6
	c-3.9-1.3-7.2-3-7.5-6.8c-0.3-3.8,1.9-7.2,6.6-7.5c2.1-0.1,6.3-0.2,13.8,2.8l1.7-12.9c-8.7-3-13.3-3-16.7-2.8
	c-11.2,0.5-19,9.2-19,20.5s9.4,16.6,19.9,20.5c3.8,1.3,6.6,3,6.9,6.9c0.4,3.6-3,6.4-6.9,6.7c-3.2,0.3-11.5,0.1-19.2-5.3L202.5,87.4z
	 M268.7,91.7V24.6h-13.4v67.1H268.7z M308.4,91.7V38h16.7V24.7h-46.9V38h16.7v53.7H308.4z M370,91.7V78.3h-21.3V64.9h17.6V51.4
	h-17.6V38h20.2V24.6h-33.6v67.1H370z M451.9,40.2l1.6-13.8c-4-1.8-8.5-2.7-13.2-2.7c-45.5,0-45.5,68.2,0,68.2
	c4.7,0,10.6-1.1,14.7-2.8l-1.7-13.9c-2.5,1.3-7.2,3-12.9,3c-26.6,0-26.6-40.9,0-40.9C446.1,37.3,449.4,38.9,451.9,40.2z M514.4,91.7
	L498.8,64c19.7-5.7,17.4-39.4-6.6-39.4h-26.5v67.1h13.4V66.1h6.5l13.5,25.6H514.4z M479.2,38H491c9.1,0,9.1,15,0,15h-11.9V38z
	 M517.3,91.7h15.2l2.7-7.2h22.2l2.8,7.2h15.1L547,22.2h-1.4L517.3,91.7z M540,71.9l6.3-17.5l6.1,17.5H540z M600.2,93.1l12.2-30
	l12.3,29.8h2.5l27.4-68.3h-15.1l-13.5,34.3l-13.1-33.6h-0.6L599,58.9l-13.5-34.3h-15.1l27.5,68.5H600.2z M662.7,24.6v67.1h34.7V78.3
	h-21.3V24.6H662.7z M743.8,91.7V78.3h-21.3V64.9h17.6V51.4h-17.6V38h20.2V24.6H709v67.1H743.8z M805,91.7L789.4,64
	c19.7-5.7,17.4-39.4-6.6-39.4h-26.5v67.1h13.4V66.1h6.5l13.5,25.6H805z M769.8,38h11.9c9.1,0,9.1,15,0,15h-11.9V38z"/>
</svg>
