<svg xmlns="http://www.w3.org/2000/svg" xmlns:xlink="http://www.w3.org/1999/xlink" viewBox="0 0 805 136.9"><defs><style>.cls-1{fill:none;}.cls-2{clip-path:url(#clip-path);}.cls-3{fill:#b71c1c;}.cls-4{fill:#333;}</style><clipPath id="clip-path"><rect class="cls-1" width="153.3" height="136.8"/></clipPath></defs><g id="Layer_2" data-name="Layer 2"><g id="Layer_1-2" data-name="Layer 1"><g class="cls-2"><path class="cls-3" d="M91.9,80.6s1.8-.9,4.5-2.1,6.3-2.9,9.9-4.1c.9-.3,1.8-.7,2.7-1l2.9-.6,5-1.1c1.6-.4,3.2-.7,4.8-1,2.7-.4,4.8-1.1,4.7-1.7s-2.3-.7-5-.3c0,0-2.1.2-5,.6l-5.1.6-2.9.4a20.16,20.16,0,0,0-2.9.8c-4.1,1.1-7.7,2.5-10.6,3.4s-4.7,1.7-4.7,1.7a20.59,20.59,0,0,0-3.3,1.7,1.88,1.88,0,0,0-.2-.8,43.83,43.83,0,0,0,3.7-5.8l2.7-5.6a21,21,0,0,1,1.3-2.6,18.76,18.76,0,0,1,1.8-2.4c.8-.8,1.5-1.7,2.3-2.6l2.6-2.6c7.1-7,14.8-13.3,14.8-13.3,2.7-2.1,4.6-4.1,4.3-4.6s-2.9.8-5.6,3c0,0-8.1,5.9-15.8,12.4L96,55.5c-.9.9-1.8,1.8-2.7,2.6A16.83,16.83,0,0,0,90.9,61c-.6.9-1.1,1.8-1.6,2.7l-3,5.4c-.5,1-1,2.1-1.5,3.1-.3-.5-.7-1-1-1.5a8.75,8.75,0,0,0,.2-1.6,6.91,6.91,0,0,0-.4-3.2,3.1,3.1,0,0,0-.6-1.3h-.4s-.2.5-.5,1.2A9.41,9.41,0,0,1,80.9,68c-.1.1-.1.2-.2.2a2.72,2.72,0,0,0-2.5,0v0c-.8-.7-2.1-.2-2.5,0l-.2-.2a9.41,9.41,0,0,1-1.2-2.2c-.3-.7-.5-1.2-.5-1.2H73c-.2.4-.4.8-.6,1.3a8.59,8.59,0,0,0-.5,3.2,8.75,8.75,0,0,0,.2,1.6,13,13,0,0,0-1,1.5,29.17,29.17,0,0,0-1.4-3.1l-3.1-5.4c-.5-.9-1-1.8-1.6-2.7a23.67,23.67,0,0,0-2.7-2.8c-.9-.8-1.7-1.8-2.7-2.6l-2.8-2.5C49.1,46.5,41,40.7,41,40.7c-2.7-2.1-5.2-3.4-5.6-3s1.6,2.4,4.3,4.6c0,0,7.7,6.4,14.7,13.4L57,58.3c.8.8,1.6,1.8,2.3,2.6l1.8,2.4a21,21,0,0,1,1.3,2.6L65,71.5a36.4,36.4,0,0,0,3.7,5.9,1.88,1.88,0,0,1-.2.8,35.92,35.92,0,0,0-3.4-1.7s-1.9-.7-4.7-1.7-6.6-2.4-10.6-3.4c-1-.3-2-.6-3-.8L44.2,70l-5.1-.6c-3-.4-5-.6-5-.6-2.7-.4-5-.2-5,.3s2.1,1.3,4.7,1.7c0,0,2.1.3,4.9,1l5,1.1,2.8.6c.9.3,1.8.7,2.7,1,3.6,1.3,7.2,3,9.9,4.1,1.5.7,3,1.3,4.5,2.1a31.27,31.27,0,0,0,5.2,1.6l.3.9a15,15,0,0,0-3,0l-5,.5c-1.7.2-3.5.4-5.2.7L53,85c-1,.3-2.1.7-3.1,1.1A63.64,63.64,0,0,0,40.6,92c-2.3,1.7-3.9,2.9-3.9,2.9-2.2,1.6-3.6,3.3-3.3,3.7s2.3-.5,4.5-2.1c0,0,1.6-1.1,4.1-2.6A58.69,58.69,0,0,1,51.3,89c.8-.2,1.7-.5,2.5-.7l2.7-.2a40.28,40.28,0,0,1,4.9-.3h4.8a4.85,4.85,0,0,0,1.7,0,29.73,29.73,0,0,0-5.6,2.9l-.3.4-1.1.9c-.6.5-1.1,1-1.7,1.6a27.14,27.14,0,0,0-1.9,2.5,83,83,0,0,0-6.1,13.6c-.9,2.5-1.8,5-2.5,7.4l-.2,1a2.08,2.08,0,0,0-.1,1.1v1c0,.3.1.6.1.9a25.46,25.46,0,0,0,.7,3.2c.9,3.9,1.7,6.4,1.6,6.4.9,3.5,2.1,6.2,2.6,6.1s.2-3.1-.6-6.5c0,0-.6-2.6-1.2-6.4-.2-1-.3-2-.4-3v-1.4a.22.22,0,0,0-.1-.3c.2,0,.1-.2.2-.4l.3-.8c.9-2.4,1.9-4.7,2.9-7a73.73,73.73,0,0,1,6.6-12.4,12.94,12.94,0,0,1,1.5-1.7A8.06,8.06,0,0,1,64,95.7a3.59,3.59,0,0,1,1-.7l.2-.1A16.91,16.91,0,0,0,64,98.5c-2.2,9.4,4.5,19.4,13.9,18.8,9.4.7,16.2-9.4,13.9-18.8a25.33,25.33,0,0,0-1.2-3.6l.2.1a6.07,6.07,0,0,1,1,.7,17.41,17.41,0,0,1,1.4,1.2,13.77,13.77,0,0,1,1.5,1.7,73.73,73.73,0,0,1,6.6,12.4c1,2.3,2.1,4.7,2.9,7l.3.8a.4.4,0,0,0,.2.4c-.2.1,0,.2,0,.3v1.4c-.1,1-.2,2.1-.4,3.1-.6,3.8-1.2,6.4-1.2,6.4-.8,3.5-1.1,6.4-.6,6.5s1.7-2.6,2.6-6.1c0,0,.7-2.5,1.7-6.4.2-1,.5-2.1.7-3.2,0-.3.1-.6.1-.9v-1.1a4.1,4.1,0,0,0-.1-1.1l-.2-1c-.7-2.5-1.6-5-2.5-7.4a78.63,78.63,0,0,0-6.1-13.6,27.14,27.14,0,0,0-1.9-2.5A12.88,12.88,0,0,0,95.1,92c-.4-.3-.7-.6-1.1-.9l-.4-.3a24.16,24.16,0,0,0-5.5-2.9h6.5a40.28,40.28,0,0,1,4.9.3l2.7.2c.8.2,1.6.5,2.5.7a68.21,68.21,0,0,1,9.3,4.8c1.4.8,2.8,1.7,4.1,2.6,2.1,1.6,4.1,2.5,4.5,2.1s-1.1-2.1-3.3-3.7c0,0-1.5-1.2-3.9-3a69.47,69.47,0,0,0-9.3-5.9c-1-.4-2.1-.8-3.1-1.1l-3.2-.3c-1.7-.3-3.4-.6-5.1-.8l-5-.5a15,15,0,0,0-3,0l.3-.9c1.5-.6,3.2-1.1,4.9-1.8Z"/><path class="cls-3" d="M143,0H10.4A10.7,10.7,0,0,0,3,3a10,10,0,0,0-3,7.3V118H40.1a10.86,10.86,0,0,1,.4-2.5l.2-.8v-.2c.5-1.6,1-3.2,1.6-4.7H8.3v-85H145v85H113c.5,1.6,1.1,3.2,1.5,4.8v.2l.2.8a20.48,20.48,0,0,1,.5,2.4h38.1V10.4a10.46,10.46,0,0,0-3-7.3A10.14,10.14,0,0,0,143,0ZM106.7,18.6a5.27,5.27,0,0,1-4.8-3.2,5.11,5.11,0,0,1-.3-3A5.85,5.85,0,0,1,103,9.7a5,5,0,0,1,2.7-1.4,5.19,5.19,0,0,1,3,.3,5.37,5.37,0,0,1,2.3,1.9,5.21,5.21,0,0,1,.9,2.9,5.12,5.12,0,0,1-5.2,5.2Zm16.6,0a5.27,5.27,0,0,1-4.8-3.2,5.11,5.11,0,0,1-.3-3,5.85,5.85,0,0,1,1.4-2.7,5,5,0,0,1,2.7-1.4,5.19,5.19,0,0,1,3,.3,5.37,5.37,0,0,1,2.3,1.9,5.21,5.21,0,0,1,.9,2.9,5.12,5.12,0,0,1-5.2,5.2Zm16.6,0a5.27,5.27,0,0,1-4.8-3.2,5.11,5.11,0,0,1-.3-3,5.85,5.85,0,0,1,1.4-2.7,5,5,0,0,1,2.7-1.4,5.19,5.19,0,0,1,3,.3,5.37,5.37,0,0,1,2.3,1.9,5.21,5.21,0,0,1,.9,2.9,5.14,5.14,0,0,1-1.5,3.7A5.3,5.3,0,0,1,139.9,18.6Z"/></g><path class="cls-4" d="M202.5,87.4c9.1,4.7,17.4,5.2,21.2,4.8C236.3,91.6,244,83,244,71.9c0-10.7-9.1-16.8-19.5-20.6-3.9-1.3-7.2-3-7.5-6.8s1.9-7.2,6.6-7.5c2.1-.1,6.3-.2,13.8,2.8l1.7-12.9c-8.7-3-13.3-3-16.7-2.8-11.2.5-19,9.2-19,20.5s9.4,16.6,19.9,20.5c3.8,1.3,6.6,3,6.9,6.9.4,3.6-3,6.4-6.9,6.7a30.17,30.17,0,0,1-19.2-5.3Zm66.2,4.3V24.6H255.3V91.7Zm39.7,0V38h16.7V24.7H278.2V38h16.7V91.7Zm61.6,0V78.3H348.7V64.9h17.6V51.4H348.7V38h20.2V24.6H335.3V91.7Zm81.9-51.5,1.6-13.8a32.13,32.13,0,0,0-13.2-2.7c-45.5,0-45.5,68.2,0,68.2A42.21,42.21,0,0,0,455,89.1l-1.7-13.9a29,29,0,0,1-12.9,3c-26.6,0-26.6-40.9,0-40.9A22.65,22.65,0,0,1,451.9,40.2Zm62.5,51.5L498.8,64c19.7-5.7,17.4-39.4-6.6-39.4H465.7V91.7h13.4V66.1h6.5l13.5,25.6ZM479.2,38H491c9.1,0,9.1,15,0,15H479.1V38Zm38.1,53.7h15.2l2.7-7.2h22.2l2.8,7.2h15.1L547,22.2h-1.4ZM540,71.9l6.3-17.5,6.1,17.5Zm60.2,21.2,12.2-30,12.3,29.8h2.5l27.4-68.3H639.5L626,58.9,612.9,25.3h-.6L599,58.9,585.5,24.6H570.4l27.5,68.5Zm62.5-68.5V91.7h34.7V78.3H676.1V24.6Zm81.1,67.1V78.3H722.5V64.9h17.6V51.4H722.5V38h20.2V24.6H709V91.7Zm61.2,0L789.4,64c19.7-5.7,17.4-39.4-6.6-39.4H756.3V91.7h13.4V66.1h6.5l13.5,25.6ZM769.8,38h11.9c9.1,0,9.1,15,0,15H769.8Z"/></g></g></svg>