<?xml version="1.0" standalone="no"?>
<!DOCTYPE svg PUBLIC "-//W3C//DTD SVG 20010904//EN"
 "http://www.w3.org/TR/2001/REC-SVG-20010904/DTD/svg10.dtd">
<svg version="1.0" xmlns="http://www.w3.org/2000/svg"
 width="932.000000pt" height="932.000000pt" viewBox="0 0 932.000000 932.000000"
 preserveAspectRatio="xMidYMid meet">
<metadata>
Created by potrace 1.11, written by Peter Selinger 2001-2013
</metadata>
<g transform="translate(0.000000,932.000000) scale(0.100000,-0.100000)"
fill="#000000" stroke="none">
<path d="M472 8779 c-102 -26 -200 -80 -274 -152 -66 -63 -124 -144 -134 -184
-4 -13 -11 -23 -17 -23 -6 0 -7 -3 -4 -7 4 -3 3 -11 -2 -17 -5 -6 -16 -46 -25
-88 -14 -70 -16 -399 -16 -3368 l0 -3290 1215 0 1215 0 1 25 c2 43 5 59 12 80
3 11 8 31 11 45 11 55 39 151 71 246 19 54 32 100 31 102 -2 1 -465 3 -1029 3
l-1025 0 2 2572 1 2572 4133 0 c2322 0 4136 -4 4139 -9 4 -6 8 -4947 4 -5108
l-1 -28 -852 1 c-469 0 -906 0 -970 -1 l-117 0 30 -80 c16 -44 26 -80 23 -80
-4 0 -2 -6 4 -12 8 -10 38 -117 57 -203 1 -5 5 -17 8 -25 3 -8 8 -33 10 -55
l3 -40 1154 0 1153 0 1 118 c1 64 -3 117 -7 117 -5 0 -5 5 -1 12 9 15 9 211 0
227 -4 6 -4 11 1 11 4 0 8 160 8 355 0 195 -4 355 -8 355 -5 0 -5 5 -1 11 9
16 9 214 -1 229 -5 7 -4 11 1 8 5 -4 9 141 9 353 0 197 -4 359 -8 359 -5 0 -5
5 -1 12 9 15 9 211 0 227 -4 6 -4 11 1 11 4 0 7 105 5 232 -3 278 -3 210 0
471 2 119 -1 217 -5 217 -5 0 -5 5 -2 11 10 15 12 170 3 175 -4 3 -4 12 -1 20
9 25 9 544 0 544 -5 0 -5 5 -1 12 9 15 9 211 0 227 -4 6 -4 11 1 11 9 0 9 680
0 704 -4 10 -3 15 1 12 8 -5 7 205 -2 229 -3 9 -2 14 2 11 4 -2 7 157 7 355 0
197 -4 359 -8 359 -5 0 -5 5 -1 12 9 15 9 211 0 227 -4 6 -4 11 1 11 9 0 8
289 -1 370 -4 30 -12 60 -18 67 -6 7 -8 13 -4 13 12 0 -36 106 -76 168 -43 66
-144 166 -187 185 -14 6 -28 14 -31 17 -10 10 -66 33 -140 56 l-74 24 -4101
-1 c-3985 -1 -4102 -1 -4173 -20z m6086 -498 c12 -7 22 -9 22 -5 0 10 104 -68
125 -95 87 -110 90 -272 8 -380 -42 -55 -56 -66 -119 -97 -119 -58 -266 -31
-359 65 -66 67 -101 188 -81 279 9 42 30 92 38 92 4 0 8 6 8 14 0 11 64 75
105 104 48 35 205 49 253 23z m1006 -1 c5 -5 17 -10 26 -10 25 0 104 -66 133
-109 140 -212 -15 -498 -264 -486 -35 2 -73 5 -84 8 -65 16 -161 97 -188 159
-35 80 -39 98 -33 164 13 140 108 252 241 285 39 10 156 2 169 -11z m1037 -14
c53 -25 129 -93 129 -116 0 -5 4 -10 8 -10 15 0 42 -100 42 -154 0 -28 -6 -69
-13 -91 -14 -45 -47 -105 -59 -105 -4 0 -8 -6 -8 -12 0 -15 -81 -72 -125 -88
-87 -33 -211 -14 -293 45 -49 35 -106 118 -118 170 -30 141 32 288 151 352 88
48 197 51 286 9z"/>
<path d="M2155 6529 c-14 -22 73 -120 208 -234 27 -22 58 -49 71 -60 12 -11
46 -40 76 -65 30 -25 65 -56 79 -68 14 -13 53 -47 85 -75 61 -53 72 -63 148
-131 47 -43 237 -218 302 -279 73 -69 350 -344 391 -388 56 -62 131 -150 159
-190 24 -34 125 -231 186 -364 106 -230 161 -330 256 -467 83 -119 72 -139
-44 -80 -42 21 -102 48 -132 59 -30 12 -64 25 -75 29 -11 4 -23 8 -27 9 -5 2
-10 4 -13 5 -3 1 -8 3 -12 5 -5 1 -15 4 -23 8 -87 35 -583 200 -688 228 -195
54 -258 69 -311 75 -31 4 -63 8 -71 9 -8 1 -35 5 -60 8 -25 4 -65 9 -90 12
-25 3 -67 8 -95 11 -27 3 -63 7 -80 9 -16 2 -50 6 -75 9 -25 3 -67 9 -95 11
-27 3 -66 8 -85 10 -163 19 -328 26 -337 13 -2 -5 -13 -8 -24 -8 -26 0 -24
-26 4 -45 30 -19 123 -51 173 -59 21 -3 50 -8 64 -11 14 -3 39 -7 55 -9 17 -3
42 -7 55 -11 14 -3 39 -8 55 -10 17 -2 30 -4 30 -5 0 -2 20 -6 65 -15 19 -3
53 -11 74 -16 22 -6 51 -12 65 -14 14 -2 26 -4 26 -5 0 -1 7 -3 15 -5 51 -10
265 -58 320 -71 57 -14 106 -31 175 -59 11 -5 23 -9 27 -9 3 -1 10 -4 14 -9 4
-4 16 -7 26 -7 10 0 26 -4 36 -10 9 -5 78 -35 152 -66 74 -31 158 -66 185 -79
28 -12 95 -41 149 -65 54 -23 106 -46 115 -51 53 -29 218 -100 286 -123 127
-42 140 -46 161 -46 27 0 64 -28 64 -48 0 -15 -13 -17 -102 -18 -108 -2 -213
-10 -348 -29 -19 -3 -60 -7 -90 -10 -82 -8 -91 -9 -300 -46 -115 -20 -276 -70
-341 -106 -19 -11 -59 -33 -89 -49 -30 -16 -61 -35 -68 -41 -7 -7 -18 -13 -23
-13 -5 0 -15 -5 -22 -10 -7 -6 -61 -43 -122 -83 -120 -79 -228 -158 -233 -169
-2 -5 -9 -8 -14 -8 -6 0 -18 -7 -27 -15 -15 -15 -88 -71 -155 -120 -118 -86
-216 -190 -216 -230 0 -41 106 6 291 128 64 43 119 77 123 77 4 0 12 5 19 10
16 14 166 110 171 110 2 0 34 19 72 41 71 43 234 127 344 177 87 39 208 70
305 78 44 3 96 8 115 11 19 2 172 6 340 8 234 3 299 2 280 -7 -112 -52 -146
-69 -225 -117 -49 -29 -94 -59 -100 -65 -5 -7 -21 -19 -34 -28 -28 -20 -142
-129 -156 -150 -5 -9 -31 -44 -56 -79 -26 -35 -64 -98 -87 -140 -22 -42 -45
-85 -51 -95 -48 -86 -182 -399 -249 -584 -11 -30 -23 -64 -28 -75 -4 -11 -8
-24 -10 -30 -1 -5 -26 -75 -54 -155 -28 -80 -53 -152 -55 -160 -14 -60 -19
-77 -28 -88 -5 -6 -7 -12 -3 -12 3 0 1 -12 -5 -28 -16 -41 -13 -147 6 -237 9
-44 18 -89 20 -100 5 -23 22 -94 36 -145 5 -19 23 -89 40 -155 63 -246 88
-328 124 -406 59 -130 91 -130 82 0 -6 83 -18 167 -27 191 -1 3 -2 8 -1 12 0
3 -6 30 -13 60 -8 29 -17 67 -20 83 -3 17 -7 42 -10 58 -14 68 -32 163 -41
217 -3 19 -7 44 -9 55 -4 25 -15 95 -22 137 -10 70 -3 165 17 228 12 36 25 70
29 75 3 6 15 33 25 60 17 48 87 216 125 300 10 22 28 63 40 90 117 263 295
581 396 707 56 69 186 177 192 159 2 -5 -4 -23 -12 -40 -9 -16 -17 -38 -19
-48 -1 -10 -6 -23 -9 -29 -4 -6 -10 -24 -13 -40 -3 -16 -8 -38 -10 -49 -3 -11
-7 -31 -10 -45 -5 -21 -16 -132 -17 -165 -1 -25 13 -172 18 -187 3 -9 7 -27 9
-40 11 -55 29 -118 35 -118 4 0 7 -6 7 -13 0 -16 81 -179 92 -187 5 -3 14 -16
21 -29 28 -53 134 -160 214 -213 91 -63 187 -103 296 -124 46 -9 304 -9 355 0
89 16 216 64 230 86 4 6 10 8 15 5 5 -3 14 0 22 7 7 7 31 26 53 42 58 42 160
149 204 215 62 92 120 227 137 316 2 11 6 31 10 45 18 76 23 255 9 325 -4 22
-9 49 -10 60 -2 11 -4 20 -5 20 -1 0 -3 11 -6 25 -2 14 -10 41 -16 60 -7 19
-13 37 -13 40 -1 3 -6 16 -12 30 -30 73 -29 75 18 39 55 -44 106 -87 136 -119
30 -31 150 -208 169 -250 4 -8 14 -23 23 -34 9 -10 14 -19 12 -20 -3 0 11 -28
30 -61 19 -33 43 -78 54 -100 11 -22 25 -43 30 -47 6 -4 6 -8 2 -8 -5 0 2 -15
15 -32 13 -18 22 -35 22 -38 -1 -3 14 -39 33 -80 19 -41 42 -91 50 -110 8 -19
28 -63 44 -98 16 -35 29 -65 29 -67 0 -2 11 -28 24 -57 29 -65 78 -189 80
-203 1 -5 5 -15 9 -21 4 -7 15 -38 25 -70 24 -78 22 -134 -18 -364 -11 -63
-22 -126 -24 -140 -3 -14 -5 -25 -6 -25 -1 0 -4 -12 -6 -27 -1 -16 -16 -90
-32 -165 -17 -76 -33 -160 -37 -188 -11 -73 -13 -185 -4 -190 11 -8 40 6 33
16 -3 5 -1 9 4 9 16 0 92 184 108 260 7 36 12 55 14 55 1 0 3 7 5 15 1 8 12
49 24 90 28 102 82 320 85 346 2 11 5 25 8 30 3 5 8 32 12 59 3 28 10 66 14
85 9 36 8 138 -2 178 -24 105 -186 569 -271 777 -69 170 -251 544 -276 565 -3
3 -25 32 -49 65 -113 154 -290 288 -510 387 l-65 29 325 -5 c179 -2 339 -6
355 -9 17 -3 62 -8 100 -12 92 -8 118 -13 152 -26 15 -6 38 -13 51 -15 36 -7
325 -143 330 -156 2 -5 10 -8 17 -8 7 0 43 -18 79 -40 36 -22 70 -40 76 -40 5
0 10 -3 10 -7 0 -5 18 -17 40 -27 22 -11 40 -23 40 -28 0 -4 5 -8 10 -8 6 0
43 -21 83 -47 40 -25 104 -67 142 -91 39 -25 80 -54 93 -65 12 -11 22 -16 22
-11 0 5 4 4 8 -1 10 -14 93 -53 117 -55 51 -5 54 6 16 59 -35 49 -66 78 -161
154 -47 38 -94 76 -105 85 -11 9 -76 58 -145 109 -69 51 -129 96 -135 101 -71
57 -475 292 -475 276 0 -3 -6 -2 -12 3 -24 19 -143 52 -208 58 -89 7 -163 17
-225 30 -38 7 -90 15 -145 21 -30 3 -71 7 -90 10 -19 3 -55 7 -80 9 -25 2 -76
7 -115 10 -38 4 -112 7 -162 8 -51 0 -93 2 -93 3 0 17 27 54 39 56 26 2 35 4
61 12 14 4 63 19 110 33 47 14 89 30 95 34 5 5 14 9 21 9 6 0 69 27 138 60 70
33 129 60 131 60 3 0 38 15 77 33 145 66 314 141 348 152 3 1 19 7 35 14 17 6
62 23 100 37 39 15 97 37 130 49 63 25 117 40 175 50 45 9 65 13 65 15 0 2 24
7 69 15 22 4 50 11 63 16 13 5 23 7 23 4 0 -2 15 1 33 6 17 6 43 12 57 14 22
3 64 12 145 31 11 3 38 7 60 10 21 3 43 8 47 10 5 3 18 7 31 9 12 2 40 7 62
10 22 4 52 9 66 11 24 3 98 20 124 28 6 2 24 7 40 11 72 20 99 68 45 80 -39 8
-171 9 -235 1 -27 -4 -71 -8 -97 -10 -100 -9 -244 -28 -271 -36 -16 -5 -25 -5
-22 0 3 5 -9 5 -27 0 -18 -5 -58 -11 -88 -14 -30 -3 -66 -8 -80 -10 -14 -3
-52 -7 -85 -11 -89 -8 -183 -25 -240 -41 -158 -44 -338 -98 -389 -116 -32 -11
-63 -21 -70 -23 -6 -1 -24 -7 -39 -13 -16 -7 -31 -12 -34 -12 -5 0 -251 -85
-382 -132 -46 -17 -104 -40 -130 -51 -25 -12 -48 -22 -51 -22 -3 -1 -33 -15
-66 -33 l-62 -31 -4 24 c-4 17 6 39 35 77 44 60 152 240 184 308 12 25 48 101
81 170 32 69 67 143 76 165 10 22 22 47 26 55 5 8 19 35 31 60 73 146 347 437
825 876 17 16 64 58 104 94 40 36 78 70 84 75 18 17 139 121 175 151 19 16 44
38 56 49 12 11 44 38 71 60 79 64 94 77 164 145 98 96 123 140 79 140 -21 0
-102 -37 -154 -70 -16 -11 -37 -23 -45 -27 -8 -3 -19 -12 -23 -20 -4 -7 -12
-13 -17 -13 -5 0 -60 -39 -122 -86 -62 -47 -126 -95 -142 -107 -116 -86 -434
-333 -446 -347 -3 -3 -25 -21 -50 -40 -25 -19 -52 -41 -61 -49 -10 -9 -36 -32
-60 -51 -36 -29 -182 -153 -277 -235 -13 -11 -73 -68 -134 -128 -96 -94 -141
-143 -198 -213 -28 -35 -110 -170 -110 -182 0 -7 -5 -12 -12 -12 -6 0 -8 -3
-5 -7 4 -3 3 -11 -3 -18 -14 -17 -130 -226 -130 -235 0 -5 -4 -10 -8 -12 -11
-4 -112 -209 -112 -226 0 -22 -17 -12 -43 26 -25 35 -26 42 -20 119 6 90 -6
177 -37 249 -24 54 -44 56 -61 7 -13 -41 -50 -111 -81 -155 -14 -20 -25 -25
-43 -22 -58 10 -91 11 -106 3 -9 -4 -31 -3 -52 3 -26 8 -47 8 -78 0 -36 -9
-46 -8 -60 4 -19 17 -99 174 -99 193 0 7 -8 11 -17 9 -18 -3 -57 -86 -67 -141
-2 -15 -7 -31 -11 -37 -3 -5 -1 -10 5 -10 7 0 8 -6 2 -17 -4 -10 -7 -27 -6
-38 1 -11 4 -45 7 -76 5 -45 2 -60 -12 -75 -9 -11 -20 -27 -24 -36 -12 -32
-22 -19 -56 62 -18 44 -37 80 -42 80 -5 0 -9 9 -9 20 0 11 -4 20 -10 20 -5 0
-10 5 -10 11 0 5 -25 54 -56 107 -31 53 -74 131 -96 172 -22 41 -60 106 -85
143 -69 108 -382 409 -673 647 -23 19 -50 42 -60 50 -26 21 -46 37 -130 104
-41 33 -79 65 -85 70 -5 6 -84 67 -175 135 -91 69 -170 130 -177 135 -32 28
-43 36 -48 36 -4 0 -122 87 -135 100 -3 3 -12 10 -21 15 -9 6 -36 24 -60 41
-109 78 -231 135 -244 113z"/>
</g>
</svg>
